<svg viewBox="0 0 1800 1500" fill="none" xmlns="http://www.w3.org/2000/svg">
<path d="M1580.33 1280.33C1475.44 1385.22 1341.8 1456.65 1196.32 1485.59C1050.83 1514.53 900.032 1499.68 762.988 1442.91C625.943 1386.14 508.809 1290.01 426.398 1166.68C343.987 1043.34 300 898.336 300 750C300 601.664 343.987 456.659 426.398 333.322C508.809 209.985 625.943 113.856 762.988 57.0904C900.032 0.324643 1050.83 -14.5279 1196.32 14.411C1341.8 43.3499 1475.44 114.78 1580.33 219.67L1352.59 447.406C1292.75 387.558 1216.5 346.802 1133.49 330.29C1050.48 313.778 964.432 322.252 886.238 354.642C808.043 387.031 741.209 441.88 694.187 512.253C647.165 582.626 622.068 665.363 622.068 750C622.068 834.637 647.165 917.374 694.187 987.747C741.209 1058.12 808.043 1112.97 886.238 1145.36C964.432 1177.75 1050.48 1186.22 1133.49 1169.71C1216.5 1153.2 1292.75 1112.44 1352.59 1052.59L1580.33 1280.33Z" fill="#7E00F5"/>
<circle cx="150" cy="1350" r="150" fill="#FF8E01"/>
</svg>
